<svg id="Layer_1" data-name="Layer 1" xmlns="http://www.w3.org/2000/svg" viewBox="0 0 367.99 146.27"><defs><style>.cls-1{fill:#cd8b00;}</style></defs><title>Gold Primary Lockup</title><path class="cls-1" d="M90.89,114.94h20.26a7.84,7.84,0,0,1,7.83,7.83v2.64a5.12,5.12,0,0,1-1.26,3.65,1.57,1.57,0,0,0,.07,2.23,4.94,4.94,0,0,1,1.55,3.79v3.36a7.84,7.84,0,0,1-7.83,7.83H90.89a1.57,1.57,0,0,1-1.57-1.57V116.51A1.57,1.57,0,0,1,90.89,114.94Zm19.18,12.53a2.46,2.46,0,0,0,2.46-2.46v-1.79a2.46,2.46,0,0,0-2.46-2.46H97.33a1.56,1.56,0,0,0-1.56,1.57v3.58a1.56,1.56,0,0,0,1.56,1.56Zm.36,13a2.46,2.46,0,0,0,2.46-2.46v-2.51a2.46,2.46,0,0,0-2.46-2.46H97.33a1.56,1.56,0,0,0-1.56,1.57v4.29a1.56,1.56,0,0,0,1.56,1.57Zm43.13,5.82h-3.48a1.58,1.58,0,0,1-1.42-.9l-4.34-9.25a1.58,1.58,0,0,0-1.42-.91h-9.64a1.58,1.58,0,0,0-1.57,1.57v7.92a1.56,1.56,0,0,1-1.56,1.57h-3.31a1.57,1.57,0,0,1-1.57-1.57V116.51a1.57,1.57,0,0,1,1.57-1.57h20.39a7.84,7.84,0,0,1,7.83,7.84v6c0,2.85-.9,4.71-2.8,5.61a1.58,1.58,0,0,0-.79,2.09L155,144A1.56,1.56,0,0,1,153.56,146.27Zm-7.43-16.78a2.46,2.46,0,0,0,2.46-2.46v-3.81a2.46,2.46,0,0,0-2.46-2.46H133.26a1.57,1.57,0,0,0-1.57,1.57v5.59a1.57,1.57,0,0,0,1.57,1.57Zm16.93-14.55H188a1.57,1.57,0,0,1,1.57,1.57v2.77a1.57,1.57,0,0,1-1.57,1.57H169.5a1.57,1.57,0,0,0-1.57,1.57v3.35a1.57,1.57,0,0,0,1.57,1.57h15.74a1.56,1.56,0,0,1,1.56,1.57v2.68a1.57,1.57,0,0,1-1.56,1.57H169.5a1.57,1.57,0,0,0-1.57,1.56v4.07a1.57,1.57,0,0,0,1.57,1.57H188a1.57,1.57,0,0,1,1.57,1.57v2.77a1.57,1.57,0,0,1-1.57,1.57H163.06a1.57,1.57,0,0,1-1.57-1.57V116.51A1.57,1.57,0,0,1,163.06,114.94Zm82.2,23.5v-.81a1.57,1.57,0,0,1,1.56-1.57H250a1.57,1.57,0,0,1,1.56,1.57V138a2.46,2.46,0,0,0,2.46,2.46h12.21a2.46,2.46,0,0,0,2.46-2.46V135.8c0-1-.36-1.26-1.52-1.52l-15.25-1.79-.17,0c-3.89-.86-6.36-2.43-6.36-6.43v-3.27a7.83,7.83,0,0,1,7.83-7.83h13.54a7.83,7.83,0,0,1,7.83,7.83v.45a1.56,1.56,0,0,1-1.56,1.57h-3.13a1.57,1.57,0,0,1-1.57-1.57h0a2.46,2.46,0,0,0-2.46-2.46H254.25a2.46,2.46,0,0,0-2.46,2.46v1.84c0,1,.36,1.25,1.52,1.52l15.25,1.78a.86.86,0,0,1,.17,0c3.89.85,6.36,2.42,6.36,6.42v3.63a7.83,7.83,0,0,1-7.83,7.83H253.09A7.83,7.83,0,0,1,245.26,138.44Zm-10.49-22.29-4.46,18.67a1.56,1.56,0,0,1-3,.11L221.25,116a1.57,1.57,0,0,0-1.49-1.09h-3.18a1.57,1.57,0,0,0-1.49,1.09L209,134.93a1.56,1.56,0,0,1-3-.11l-4.46-18.67a1.57,1.57,0,0,0-1.52-1.21h-3.47a1.57,1.57,0,0,0-1.52,2l7.05,28.19a1.56,1.56,0,0,0,1.52,1.19h7.07a1.58,1.58,0,0,0,1.5-1.11l4.47-14.46a1.57,1.57,0,0,1,3,0l4.47,14.46a1.58,1.58,0,0,0,1.5,1.11h6.76a1.56,1.56,0,0,0,1.52-1.19L241,116.89a1.57,1.57,0,0,0-1.52-2h-3.2A1.57,1.57,0,0,0,234.77,116.15ZM73,126.89c-1.09,0-40.91,1.08-71.9,1.92a1.11,1.11,0,0,0,0,2.21c31,1,70.79,2.37,71.88,2.38a3.26,3.26,0,1,0,0-6.51Zm219.35,6.74c1.1,0,40.92-.64,71.92-1.16a1.11,1.11,0,0,0,0-2.21c-31-1.37-70.77-3.11-71.86-3.13a3.25,3.25,0,0,0-.09,6.5Zm70.46-47.45c-2.51,3.4-13.66,12.36-31.42,12l0,0c-.62,0-1.23,0-1.87,0a33.58,33.58,0,0,1-15.84-3.57,25.86,25.86,0,0,1-5.39-3.73l0,0c-3.77,2.79-11,7.46-16.91,7.46a9.23,9.23,0,0,1-7.77-3.76c-3.22-4.64-2.61-13,1.81-24.8.66-1.75,1.29-3.25,1.84-4.58,1.25-3,2.08-4.95,1.56-6a2.12,2.12,0,0,0-1.45-1c-1.45-.43-4.3.1-8,2.91-2.76,2.13-6.89,6.31-10.81,14.1a23.22,23.22,0,0,0-2.15,6.5c-.28,1.16-.63,3.45-1,5.87-.75,4.9-1.32,8.41-1.81,8.91a3.75,3.75,0,0,1-3.3,1.27c-3.06-.08-4.86-2.75-5.35-7.92A45.29,45.29,0,0,1,248.51,94a33.77,33.77,0,0,1-16.42,4.31,21.79,21.79,0,0,1-14.52-5,16.41,16.41,0,0,1-5.58-10,41.32,41.32,0,0,1-9.11-1.58C198.12,93,189,96.46,181,96.46q-9.06,0-14.74-5.55c-.37-.36-.71-.74-1-1.12-1,.78-2.21,1.59-3.55,2.45q-9,5.78-14.37,5.77-8.62,0-8.76-8.61l.44-4.53a23.76,23.76,0,0,1-6.14,8.9A15,15,0,0,1,122,98.15q-6.27,0-9.41-4.23a14.57,14.57,0,0,1-1.94-3.59A44.82,44.82,0,0,1,104.92,94,33.83,33.83,0,0,1,88.5,98.3a21.8,21.8,0,0,1-14.53-5q-6-5-6-14.67c0-7.2,5.13-29.33,24.23-29.33a14.78,14.78,0,0,1,9.92,3.35,11.28,11.28,0,0,1,3.94,9,15.5,15.5,0,0,1-6.56,13q-6.57,5-19.86,7.74,2.06,6.27,10.51,6.28,10.15,0,19.31-7.51a61.51,61.51,0,0,1,3-16.43c1.67-5.29,4.85-13.33,5.86-15.83a.86.86,0,0,1,1.09-.49L124,50.07a4.28,4.28,0,0,1,2.64,5.33c-.66,2-1.56,4.74-2.62,7.72A67.74,67.74,0,0,0,120,80.35v1q0,7.16,5,7.15,3.95,0,8.1-4.6c5.27-5.82,13-32.53,14-35a.86.86,0,0,1,1.09-.49l4.64,1.66a4.26,4.26,0,0,1,2.64,5.32c-.66,2-5.68,18.58-6.66,27.73l-.14,1.75q0,3.36,2,3.36,4.14-.27,10.47-6.72a24.58,24.58,0,0,1-.55-5.19v-1a146.39,146.39,0,0,1,5.25-33.57,94.35,94.35,0,0,1,13.28-29.4Q187.66,0,197.73,0q4.82,0,7.07,3.14a13,13,0,0,1,2.27,7.8L206.92,13q-.73,8.74-7.88,21.3T184.59,52.53l1.61-1a18.11,18.11,0,0,1,10.51-2.92c12.77,0,9.06,22,8.5,25.16a30,30,0,0,0,6.6,1.23,31.52,31.52,0,0,1,6.85-16.46q7.08-9.26,17.15-9.27a14.78,14.78,0,0,1,9.93,3.36,11.28,11.28,0,0,1,3.94,9,15.51,15.51,0,0,1-6.57,13q-6.57,5-19.85,7.74,2,6.27,10.51,6.28,11.39,0,21.53-9.46s.57-4.48.75-5.52a100.69,100.69,0,0,1,6.6-24.12l.3-.71a1,1,0,0,1,1.22-.55L268.82,50a4.36,4.36,0,0,1,2.7,5.46c-.41,1.29-.9,3.27-1.18,4.41,2.47-3.08,10-11.18,20.43-11.18,4.06,0,6.8,1,8.16,3.09,2.57,3.88-.33,10.74-1.89,14.42-5.23,12.35-6.82,20.36-4.46,22.55,1.11,1,3.14.82,6-.65h0s.92-.46,2.06-1.14a16.51,16.51,0,0,0,4.93-4.56c1-1.44,2.28-3.2,2.62-3.83q2-3.67,4.24-8.08c8-18.18,9-19.07,10-21.56a.86.86,0,0,1,1.09-.49L330,50.7a4.31,4.31,0,0,1,2.65,2.75c.46,1.46,0,2.65-.61,4a5.13,5.13,0,0,0-.45,2q0,1.47,3.22,5.4a102.4,102.4,0,0,1,6.34,8.76c2.1,3.21,3.14,6,3.14,8.39a11.67,11.67,0,0,1-1.6,6.21,20.79,20.79,0,0,0,12.09-10.1,6.75,6.75,0,0,0,.43-5.22,1,1,0,0,1,.61-1.2c3.2-1.07,7.24.52,8.62,3C366,77.67,365.51,82.48,362.78,86.18ZM78.93,76q18.25-6.28,18.25-13.14c0-2.72-1.58-4.09-4.74-4.09s-6.21,1.83-9.13,5.48A18.45,18.45,0,0,0,78.93,76ZM173.07,57.2c2.52-3.21,4.62-5.93,6.27-8.17q.87-1.32,3.21-4.45t3.36-4.82q1-1.66,2.92-4.59,6.71-11,7.29-18.68V15.32c0-2.23-.78-3.35-2.33-3.35q-4.24,0-9,9a100.74,100.74,0,0,0-7.81,19.12A111.33,111.33,0,0,0,173.07,57.2Zm15.32-.14q-6.13,0-10.51,5.61a19.83,19.83,0,0,0-4.38,12.48Q173.5,87,182.26,87C195.74,87,200.78,57.06,188.39,57.06Zm34.19,17.81a39.88,39.88,0,0,0,12-4.28c4.09-2.52,6.15-5.11,6.15-7.76s-1.59-4.09-4.75-4.09-6.2,1.83-9.12,5.48A18.64,18.64,0,0,0,222.58,74.87Zm111.17,8.39q0-6.56-7-16.93l-9.64,19.56q5.11,3.94,8.76,3.94h.59Q333.75,89.83,333.75,83.26ZM308,53.27h2.84a1.45,1.45,0,0,0,1.32-.83l5.43-11.56A4.51,4.51,0,0,0,315,34.72l-4.24-1.53a.69.69,0,0,0-.9.49l-4,16.87A2.2,2.2,0,0,0,308,53.27ZM70,55.69c-6,8.11-20.06,28-20.06,37.79,0,5,2.34,7.88,6.43,7.88,3.78,0,7.17-3.58,9.76-7.64a.94.94,0,0,1,1.46-.16c2.6,2.58,2.55,6.36,1,9.7-1.79,4-6.88,8.55-13.09,8.55-10.32,0-15.73-8.82-15.73-17.53,0-13.92,14.94-35.33,15.09-35.54l1.27-1.81-2.09.72c-4.3,1.48-10.58,1.94-16.32,1.27C33.13,67,28,76,25.7,79.76a62.93,62.93,0,0,1-6,8.28c-1.09,1.26-4.26,4.69-7.8,6.06-3.85,1.49-8.15.78-10.29-1.31-1.86-1.8-2.28-5.68-.58-8.2a.86.86,0,0,1,1.18-.24,5.81,5.81,0,0,0,4.63.87c5.6-1.37,11.12-11,20.26-27l1-1.76-.71-.32c-7.51-3.5-11.32-9.45-11.32-17.71,0-10.33,10.5-21.83,25.57-21.83a13.76,13.76,0,0,1,4.27.59c9.57,2.34,4.82,18.12.79,25.69-.41.76-2,3.52-4,7.24,8.83-.16,18.88-3.75,22.93-6.37a.87.87,0,0,1,1.2.25l3.27,4.81A5.92,5.92,0,0,1,70,55.69ZM40.65,26.75a2.22,2.22,0,0,0-2-1c-6,0-12,5.75-12,11.61,0,4.83,1.79,8.36,5.31,10.49l.65.4L34,45.62C39.6,34.62,42,29,40.65,26.75ZM353.47,50.5h-1.79a.37.37,0,0,1-.37-.37v-.81a.38.38,0,0,1,.37-.38H358a.38.38,0,0,1,.38.38v.81a.37.37,0,0,1-.38.37h-1.78a.37.37,0,0,0-.37.37v6.36a.38.38,0,0,1-.37.38h-1.29a.38.38,0,0,1-.37-.38V50.87A.37.37,0,0,0,353.47,50.5Zm6.23-1.56H361a.37.37,0,0,1,.32.2l2,3.78a.37.37,0,0,0,.65,0l2-3.78a.38.38,0,0,1,.33-.2h1.31a.38.38,0,0,1,.37.38v7.91a.38.38,0,0,1-.37.38H366.4a.38.38,0,0,1-.38-.38V54.08a.37.37,0,0,0-.69-.17l-.9,1.7a.37.37,0,0,1-.33.19h-.89a.39.39,0,0,1-.33-.19l-.89-1.7a.37.37,0,0,0-.7.17v3.15a.38.38,0,0,1-.37.38H359.7a.37.37,0,0,1-.37-.38V49.32A.37.37,0,0,1,359.7,48.94Z"/></svg>