<?xml version="1.0" encoding="UTF-8"?> <svg xmlns="http://www.w3.org/2000/svg" xmlns:xlink="http://www.w3.org/1999/xlink" width="3840px" height="2097px" viewBox="0 0 3840 2097"><title>Artboard</title><defs><polygon id="path-1" points="0 4333 4442 4333 4442 0 0 0"></polygon></defs><g id="Artboard" stroke="none" stroke-width="1" fill="none" fill-rule="evenodd"><g id="Private-events_freemont-ave-line-art_b-(1)" transform="translate(-344.000000, -1065.000000)"><g id="g8" transform="translate(2221.000000, 2166.500000) scale(-1, 1) rotate(-180.000000) translate(-2221.000000, -2166.500000) translate(0.000000, 0.000000)"><g id="g12-Clipped" transform="translate(-0.000000, 0.000000)"><mask id="mask-2" fill="white"><use xlink:href="#path-1"></use></mask><g id="path14"></g><g id="g12" mask="url(#mask-2)"><g transform="translate(403.728034, 1508.259632)"><g id="g22" transform="translate(917.496418, 687.422455)"><path d="M32.5719668,107.90035 C32.5247838,107.90035 32.4776008,107.90035 32.4277966,107.897729 C27.6859096,107.71686 22.7841248,100.461116 17.7093359,86.1462263 C12.6476533,71.8601706 8.61613188,56.7012238 5.6226355,40.6615221 C2.62651784,24.619199 0.752306008,11.0723485 0,0 C4.04462777,7.63583122 7.39461759,14.1182928 10.0447269,19.4552486 C10.9752796,21.5444204 12.6895937,25.0805469 15.1902903,30.0845983 C17.6883657,35.0860284 19.4839392,38.926225 20.5717685,41.6051881 C21.6543552,44.2815299 23.214014,47.9487211 25.242881,52.6198681 C32.4068264,70.1353587 36.1945692,85.0452825 36.5903818,97.3181839 L36.5327137,100.088892 C36.4199989,105.294783 35.0962549,107.90035 32.5719668,107.90035" id="path24" fill="#252F38" fill-rule="nonzero"></path></g><g id="g26" transform="translate(919.031292, 616.277748)"><path d="M6.71873578,58.1632701 C2.03451684,49.2587323 -0.196188432,39.3738303 0.0135135916,28.4902151 C0.375249582,9.69553266 5.42120451,0.188097084 15.2011826,0.00198516626 C38.019384,-0.435771035 45.0679933,71.6708013 24.050608,71.5922267 C17.185488,71.5633282 11.4134398,67.0809144 6.71873578,58.1632701 Z" id="path28" stroke="#252F38" stroke-width="4.87999988"></path></g><g id="g30" transform="translate(692.289750, 706.343222)"><path d="M17.0231494,49.5817877 C16.9890728,49.5817877 16.9602388,49.5817877 16.9261622,49.5791664 C8.27857501,49.3406286 -0.0806718873,36.5565747 0.000587646684,23.7541718 C0.0661195289,13.1877332 2.65856079,5.48374834 7.71237955,0.857163339 L8.64817483,0 L10.6036462,5.80616757 C18.4779572,30.126539 21.8777512,42.582931 19.8646118,47.4559177 C19.4609354,48.4310393 18.6430975,49.5817877 17.0231494,49.5817877" id="path32" fill="#252F38" fill-rule="nonzero"></path></g><g id="g34" transform="translate(1002.794026, 644.622481)"><path d="M22.7893674,39.424271 L22.7526695,39.424271 C17.1483829,39.4111645 11.8901047,34.9339933 6.97259227,26.0084852 C2.49545408,17.8877145 0.191353096,9.21647187 -5.28312368e-14,0 C7.39199632,1.74053962 14.4222566,5.35792619 20.9937938,10.312173 C28.1131775,16.4800792 31.6256864,22.8445826 31.4553035,29.3847126 C31.2822993,36.0742565 28.3857901,39.424271 22.7893674,39.424271 M21.8509508,29.4869431 C21.8561934,29.3768488 21.8614359,29.2588905 21.8640572,29.1356897 C21.9531806,25.7070363 19.6281094,21.8851887 14.9543755,17.7749988 C14.2911929,17.2795741 13.625389,16.8024985 12.959585,16.3463932 C13.6568443,18.0449921 14.4589545,19.7199994 15.3737796,21.3766576 C18.244076,26.5825487 20.548177,28.7372529 21.8509508,29.4869431" id="path36" fill="#252F38" fill-rule="nonzero"></path></g><g id="g38" transform="translate(314.085661, 204.446039)"><path d="M2023.45152,87.2078506 L1670.39195,116.90974 L1670.39195,256.504163 L2023.45152,239.376624 L2023.45152,87.2078506 Z M1642.67196,119.242692 L1350.3421,143.835678 L1350.3421,272.035334 L1642.67196,257.846266 L1642.67196,119.242692 Z M1322.62736,146.163388 L1069.96525,167.424708 L1069.96525,285.639853 L1322.62736,273.374815 L1322.62736,146.163388 Z M964.262328,283.246611 C964.236115,283.246611 964.212524,283.246611 964.186311,283.246611 C900.806496,285.325298 822.68725,287.907273 820.592851,288.061929 C817.153738,288.316195 814.291305,292.279592 814.196939,296.916662 C814.102573,301.401698 816.632104,304.885398 819.911319,304.885398 C820.018792,304.885398 820.126264,304.882777 820.233736,304.874913 C822.330756,304.730742 900.531262,296.169593 964.013307,289.204814 C966.972727,288.879773 967.161459,283.246611 964.262328,283.246611 M447.965462,309.268203 C447.89993,309.268203 447.834398,309.268203 447.768866,309.273445 C446.120084,309.373054 387.332743,315.611736 343.203574,320.306474 C341.206162,320.518799 341.193056,325.184704 343.182604,325.184704 L343.193089,325.184704 C387.288182,324.801995 445.999505,324.275114 447.645666,324.183369 C450.356065,324.033955 452.584149,320.571225 452.618641,316.447929 C452.652302,312.424241 450.584116,309.268203 447.965462,309.268203 M771.981301,273.387922 C774.413844,273.387922 776.277571,276.030187 776.180584,279.411657 L776.018064,285.018606 C775.944669,287.532428 775.260516,288.253284 773.071751,289.060642 L744.819646,295.136803 C744.717416,295.160395 744.609944,295.191851 744.507714,295.225927 C737.356875,297.765962 732.76178,301.970518 732.497031,312.028426 L732.279465,320.238321 C731.998989,330.896505 737.896858,339.313482 745.566709,339.313482 C745.708258,339.313482 745.852428,339.31086 745.996599,339.305618 L770.919684,338.288555 C778.956514,337.958272 785.763966,328.752286 786.089004,317.711393 L786.123081,316.568508 C786.185991,314.40594 784.982826,312.70472 783.415303,312.70472 C783.378606,312.70472 783.344529,312.70472 783.307831,312.707341 L777.462387,312.990441 C775.850303,313.06908 774.492482,314.917093 774.432193,317.121601 C774.332584,320.58171 772.204109,323.478241 769.682442,323.590956 L748.360989,324.560835 C748.311185,324.560835 748.258759,324.563457 748.208955,324.563457 C745.797382,324.563457 743.941519,321.915949 744.030642,318.558071 L744.156463,313.931486 C744.221995,311.44912 744.893042,310.738749 747.039866,309.952361 L775.312941,304.009886 C775.417792,303.988915 775.527886,303.95746 775.632737,303.920762 C782.95658,301.364999 787.70371,297.097532 788.005156,286.853512 L788.277769,277.553159 C788.594943,266.769153 782.652512,258.365283 774.909265,258.365283 C774.675972,258.365283 774.440057,258.373146 774.204142,258.388874 L747.986147,260.10058 C740.067274,260.616975 733.445933,269.896358 733.157592,280.816671 L733.105167,282.845553 C733.047499,284.971423 734.213966,286.638566 735.729063,286.638566 C735.768382,286.638566 735.807702,286.635945 735.847021,286.633324 L741.553537,286.305662 C743.134166,286.216538 744.463153,284.368525 744.523442,282.177123 L744.547033,281.272776 C744.638778,277.831016 746.733177,274.916137 749.22601,274.764102 L771.77422,273.393165 C771.842373,273.390543 771.910526,273.387922 771.981301,273.387922 M672.152652,265.057448 C672.110712,265.057448 672.068772,265.057448 672.026831,265.060069 L666.142068,265.445399 L659.698974,265.864806 C658.451246,265.948688 657.334583,267.225258 656.996439,268.965798 L643.357943,338.757767 C642.891356,341.151009 644.076173,343.40008 645.780002,343.40008 C645.806214,343.40008 645.832427,343.397459 645.85864,343.397459 L651.816799,343.153678 C653.067147,343.103874 654.181189,341.84041 654.508848,340.105113 L663.237695,293.868097 C663.623023,291.820866 664.875992,290.743514 666.076536,290.743514 C667.127668,290.743514 668.136859,291.569221 668.493352,293.288791 L677.987611,339.402606 C678.304786,340.951791 679.298249,341.981959 680.456853,341.981959 C680.483065,341.981959 680.509278,341.981959 680.535491,341.981959 L686.105701,341.753907 C687.303624,341.704102 688.394074,340.571703 688.79775,338.951743 L700.645915,291.474855 C701.122987,289.56131 702.328774,288.601916 703.482135,288.601916 C704.632875,288.601916 705.731189,289.550825 706.011665,291.456506 L712.806011,337.667309 C713.057653,339.373771 714.114027,340.555975 715.374861,340.555975 C715.403695,340.555975 715.429907,340.555975 715.458741,340.553354 L721.199334,340.320059 C723.031606,340.244041 724.441852,337.790509 724.059146,335.334356 L713.117943,265.348411 C712.855815,263.678647 711.828275,262.546247 710.596276,262.546247 C710.554335,262.546247 710.509774,262.548869 710.465212,262.55149 L704.394338,262.947306 L698.386376,263.3405 C697.167482,263.419139 696.061304,264.606585 695.660249,266.271107 L686.876356,302.751664 C686.417633,304.657345 685.21971,305.629846 684.06897,305.629846 C682.991626,305.629846 681.953601,304.775304 681.607592,303.032143 L674.585196,267.628938 C674.278507,266.079753 673.300771,265.057448 672.152652,265.057448 M632.943617,267.618453 C632.901676,267.618453 632.862357,267.618453 632.820417,267.621074 L590.803995,270.365569 C589.367536,270.459936 588.172235,272.22931 588.135537,274.31586 L586.906159,342.060598 C586.869461,344.094723 587.95729,345.704198 589.351809,345.704198 C589.3754,345.704198 589.398991,345.704198 589.425204,345.704198 L631.242409,343.995114 C632.712944,343.934824 633.939701,342.181178 633.984263,340.0789 L634.125812,333.334309 C634.167752,331.268728 633.056331,329.640904 631.625115,329.640904 C631.596281,329.640904 631.567447,329.640904 631.538613,329.643526 L600.382135,331.059025 C600.355922,331.061646 600.327088,331.061646 600.298254,331.061646 C598.898493,331.061646 597.808043,329.44955 597.847362,327.410183 L597.996774,319.333974 C598.036094,317.250045 599.236638,315.501641 600.678339,315.428245 L627.150598,314.091385 C628.621134,314.015367 629.84789,312.248615 629.889831,310.141094 L630.026137,303.603585 C630.068078,301.545869 628.961899,299.92853 627.54379,299.92853 C627.509713,299.92853 627.475636,299.92853 627.44156,299.931151 L600.943088,301.388591 C600.909011,301.391212 600.877556,301.391212 600.840858,301.391212 C599.44634,301.391212 598.363753,299.792223 598.403072,297.752855 L598.586561,287.917758 C598.625881,285.825965 599.826425,284.059212 601.273369,283.970088 L632.521591,282.074892 C633.997369,281.985768 635.229369,280.195424 635.27393,278.077418 L635.415479,271.285644 C635.45742,269.225306 634.361727,267.618453 632.943617,267.618453 M537.172703,273.872861 C537.133383,273.872861 537.096686,273.872861 537.059988,273.875483 L531.757148,274.221494 C530.375736,274.313239 529.23286,276.045915 529.201404,278.093146 L528.218426,344.529858 C528.186971,346.524663 529.240724,348.107925 530.582817,348.107925 C530.606408,348.107925 530.629999,348.105304 530.653591,348.105304 L563.443124,346.765822 C570.489112,346.47748 576.373875,337.877012 576.554743,327.54649 L576.806385,313.208008 C576.926964,306.384779 575.52196,302.007217 572.447204,300.036003 C571.160158,299.212917 570.599205,297.042485 571.238796,295.105348 L577.354232,276.596387 C578.177312,274.103535 577.050164,271.387874 575.23362,271.387874 C575.194301,271.387874 575.154982,271.387874 575.113041,271.390495 L569.401282,271.762719 C568.407819,271.828252 567.487751,272.727356 567.044756,274.07208 L559.589849,296.617835 C559.146853,297.952074 558.237271,298.840693 557.24905,298.89574 L541.683917,299.779116 C541.649841,299.779116 541.618386,299.781737 541.584309,299.781737 C540.242216,299.781737 539.196327,298.211582 539.225161,296.211534 L539.516123,277.43258 C539.547578,275.432532 538.506932,273.872861 537.172703,273.872861 M508.034606,275.789028 C507.853739,275.789028 507.672871,275.79427 507.48676,275.807377 L475.418078,277.901791 C474.089091,277.988294 472.990777,279.686893 472.967186,281.697426 L472.206698,346.886402 C472.186046,348.84713 473.205722,350.398936 474.500632,350.398936 C474.521602,350.398936 474.542572,350.398936 474.566164,350.396315 L505.932344,349.114502 C512.716204,348.839266 518.351946,340.406561 518.496116,330.275258 L518.58524,324.086381 C518.635044,320.683941 518.102925,317.858185 516.71627,315.627463 C515.804066,314.16216 515.861735,311.844935 516.89976,310.403223 C518.629801,307.989011 519.426669,304.864428 519.476473,301.351893 L519.589188,293.453932 C519.728116,283.540196 514.593037,275.789028 508.034606,275.789028 M1496.82421,293.962463 L1353.94373,300.2326 L1353.94373,445.452322 L1496.82421,446.739377 L1496.82421,293.962463 Z M1646.70873,287.385635 L1503.82826,293.655772 L1503.82826,446.80491 L1646.70873,448.091966 L1646.70873,287.385635 Z M944.613249,471.762256 C936.364095,471.762256 930.010124,479.419057 929.622175,489.652592 C929.226363,500.124664 934.990547,507.697584 943.404841,507.786708 C943.449402,507.786708 943.493964,507.786708 943.535904,507.786708 C951.504581,507.786708 957.871659,500.066995 958.277957,489.87278 C958.686876,479.48459 952.849296,471.762256 944.613249,471.762256 M844.029673,493.904332 C841.295683,493.904332 839.175071,497.285802 839.696705,500.819307 L846.045434,543.850479 C846.166013,544.668323 846.703374,545.210931 847.301025,545.210931 C847.442574,545.210931 847.584122,545.182097 847.728293,545.119186 L856.037735,541.420539 C860.963112,539.229137 863.516234,531.970772 861.529307,525.776653 L852.008835,496.093113 C851.589431,494.787708 850.627423,493.948894 849.542215,493.94103 L844.053265,493.904332 L844.029673,493.904332 Z M349.109307,420.508082 C349.701715,420.508082 350.296745,420.618177 350.894395,420.835744 C358.750357,423.716547 366.430694,444.799619 379.204169,479.86992 L380.609172,483.728466 L379.594739,484.444079 C368.876344,492.045834 363.424091,505.008136 363.327104,522.987595 C363.203904,545.438984 377.867318,570.90224 399.377503,571.649309 C399.589826,571.654551 399.799529,571.659794 400.009231,571.659794 C402.132464,571.659794 403.972599,571.277085 405.550606,570.553607 C419.477442,565.871975 412.861343,530.793811 407.139099,513.944129 C406.56504,512.248151 404.381518,506.111701 401.419477,497.857244 C414.23227,498.323834 428.903548,506.481303 434.82763,512.405429 C435.045196,512.622996 435.291596,512.727848 435.535375,512.727848 C435.944293,512.727848 436.34797,512.429021 436.602234,511.875927 L441.566929,501.160075 C443.721617,496.504656 443.70589,490.331507 441.514503,485.773076 C432.746338,467.547214 412.499607,423.066466 412.680475,401.215354 C412.77222,389.964757 416.26638,383.401036 422.284828,383.217545 C422.342496,383.214924 422.402785,383.214924 422.460453,383.214924 C427.98348,383.214924 432.877401,391.099778 436.59437,400.098682 C436.853876,400.727793 437.29425,401.050212 437.74511,401.050212 C438.112088,401.050212 438.486931,400.835266 438.777892,400.394889 C442.717669,394.449792 442.728154,385.875538 440.560359,378.355044 C438.020344,369.552736 430.735819,359.662592 421.757952,359.662592 C421.603296,359.662592 421.44602,359.665213 421.288743,359.670456 C406.116802,360.255004 398.0957,380.315772 397.948908,399.791991 C397.720857,430.817634 419.089493,478.39151 419.307059,478.871207 L421.134088,482.910622 L418.085545,481.295904 C413.684424,478.968195 407.865193,477.754535 401.907034,477.754535 C399.398473,477.754535 396.866321,477.969482 394.404944,478.407238 C387.904181,460.446127 380.721887,440.820494 377.453157,432.42973 C374.968188,426.057363 372.202742,419.920912 369.075561,414.298235 C367.539494,411.53277 363.101674,404.064701 358.113388,401.176034 C356.233933,400.088197 354.281083,399.582287 352.40425,399.582287 C348.876013,399.582287 345.623011,401.364768 343.649191,404.400227 C341.046264,408.405565 340.430264,416.895938 342.763199,422.36658 C342.986008,422.888218 343.350365,423.168696 343.73045,423.168696 C343.963744,423.168696 344.199658,423.063845 344.414603,422.848898 C345.948049,421.289228 347.518193,420.508082 349.109307,420.508082 M567.886185,409.870869 C572.373808,410.188045 577.978095,415.386073 584.701666,425.475436 C584.05159,429.333981 583.653156,433.412716 583.574518,437.77455 L583.529956,440.191384 C583.695096,466.163171 586.083078,492.541258 590.693901,519.380694 C595.304725,546.227993 602.146253,569.439557 611.255185,589.075675 C620.392951,608.785189 630.589711,618.937463 641.866438,619.469586 C642.141672,619.482693 642.409042,619.490557 642.67379,619.490557 C647.696154,619.490557 651.473412,617.18906 654.016049,612.588688 C656.694992,607.723565 658.118345,601.584493 658.286106,594.168851 L658.144557,589.288 C657.625545,575.326985 653.523249,558.22828 645.856019,538.04169 C638.207137,517.910148 630.387873,503.29643 622.400847,494.182189 L625.043093,496.635721 C629.687993,501.314731 635.546543,503.700109 642.63185,503.770884 C642.676412,503.770884 642.726216,503.773506 642.770778,503.773506 C664.438239,503.773506 659.271706,450.917721 658.493187,443.184902 C662.181321,441.523001 667.70697,440.131094 669.945539,440.081289 C670.650662,454.629474 674.241809,467.290327 680.915576,480.056032 C688.789887,495.120612 698.632775,502.735473 710.483561,502.85081 C710.572684,502.85081 710.661808,502.85081 710.750931,502.85081 C717.718281,502.85081 723.597801,500.156119 728.381629,494.756252 C733.244094,489.267261 735.810323,481.830649 736.061965,472.441171 C736.415837,459.182663 732.759158,448.469432 725.102413,440.343419 C717.479745,432.24624 705.862253,426.036393 690.346924,421.726984 C692.991791,411.409569 699.298579,406.143388 709.306608,405.936306 C709.545144,405.931063 709.78368,405.928442 710.024838,405.928442 C723.317325,405.928442 735.797216,413.53806 747.425194,428.775645 C747.425194,428.775645 748.161772,439.934497 748.408172,442.529578 C751.385941,475.877688 756.74907,495.235949 758.770073,502.528391 C758.966669,503.23614 759.131809,503.831174 759.260252,504.318735 C759.511894,505.262401 760.164592,505.836465 760.874957,505.836465 C761.071553,505.836465 761.268148,505.794524 761.464744,505.702779 L770.099225,501.660742 C774.285402,499.700014 776.652413,493.723462 775.478082,488.058845 C774.801793,484.818924 774.041623,479.875163 773.616976,477.007466 C777.952566,484.742907 791.242431,505.144443 810.862677,505.346283 C810.975392,505.346283 811.088107,505.346283 811.200821,505.346283 C818.676699,505.346283 823.848475,502.764307 826.558873,497.660647 C831.780454,487.820307 826.805273,470.370348 824.131572,461.004463 C815.182539,429.63543 812.815527,409.26535 817.468291,403.571898 C818.401465,402.431635 819.633464,401.857571 821.151182,401.857571 C823.206262,401.857571 825.788218,402.906089 828.878702,405.005746 L828.878702,405.005746 C828.912779,405.029338 830.608744,406.14863 832.731977,407.847229 C836.362443,410.754245 839.437199,414.722885 841.827802,419.399275 C843.702014,423.063845 845.956311,427.56985 846.559204,429.187189 C848.902624,435.452083 851.408563,442.343466 854.082264,449.866582 C868.037934,496.619993 869.872826,498.926732 871.602868,505.351525 C871.836161,506.219174 872.44954,506.743433 873.120586,506.743433 C873.309318,506.743433 873.500671,506.704113 873.689403,506.61761 L886.614912,500.848141 C889.136578,499.71312 891.194279,497.062992 892.101241,493.773267 C893.141887,489.99336 892.269002,486.918581 891.259811,483.468958 C890.767012,481.791329 890.502263,479.993121 890.567795,478.163457 C890.656918,475.639151 892.94267,470.973246 897.440778,464.142152 C901.949372,457.287467 906.452723,449.646393 910.953453,441.218931 C915.467289,432.762635 917.850028,425.386312 918.0807,419.124039 C918.313994,412.848659 917.435866,407.433065 915.44894,402.864148 C915.44894,402.864148 931.727059,408.321684 938.974885,429.092822 C940.453285,433.326213 940.725897,437.853189 939.331379,442.865104 C938.961779,444.212449 939.444094,445.604357 940.434936,446.031628 C941.80062,446.621419 943.258049,446.894034 944.731206,446.894034 C950.222778,446.894034 955.997447,443.121991 958.458825,437.829597 C962.081427,430.033867 961.541444,417.236707 956.283166,407.482869 C951.6671,398.924342 931.362702,377.240993 898.20357,377.240993 C896.748762,377.240993 895.267741,377.282934 893.763129,377.369437 L893.820797,377.43759 C893.055385,377.432348 892.297836,377.419241 891.529803,377.419241 C891.055352,377.419241 890.57828,377.424484 890.095965,377.43759 C878.140329,377.770495 867.647364,381.157208 858.588236,387.582001 C854.399438,390.549306 850.818776,393.849516 847.785961,397.453796 L847.749263,397.417098 C840.781913,390.494259 827.568064,379.044444 816.372598,379.044444 C816.220564,379.044444 816.071151,379.044444 815.919117,379.049687 C812.254574,379.151917 805.447122,380.588387 800.912316,389.044683 C794.505919,400.987301 795.014447,422.130664 802.406443,451.966239 C803.502136,456.393606 804.568995,460.183998 805.510033,463.52877 C807.630644,471.072855 809.033027,476.061179 807.960925,478.847615 C807.504823,480.035062 806.61359,480.852906 805.158782,481.421727 C804.62142,481.63143 803.989693,481.746767 803.271464,481.746767 C800.291074,481.746767 795.819178,479.749341 790.508474,474.045404 C785.512324,468.676992 778.172753,458.202299 771.488501,438.702488 C769.74011,433.609313 768.565779,428.133428 767.994341,422.424249 C767.567073,419.509369 767.084758,413.768734 766.57361,407.68733 C765.543448,395.390837 764.746581,386.583287 763.863211,385.351279 C762.481799,383.422006 761.51717,382.302713 758.31135,382.302713 C758.180286,382.302713 758.041359,382.305335 757.902431,382.310577 C752.287659,382.672316 748.81447,389.44312 747.553636,402.405422 C744.29277,398.806384 740.489299,395.369867 736.101284,392.108976 C727.173221,385.463995 717.846723,382.158542 708.124413,382.158542 C707.723358,382.158542 707.322303,382.163785 706.918627,382.17427 C696.826717,382.45737 688.194857,386.827068 681.00732,395.251909 C675.693995,401.477483 672.273231,409.713591 670.713572,419.944504 C665.397626,420.46352 660.118378,421.823972 654.912525,424.015374 C647.515286,397.246714 632.691974,389.070896 619.278909,389.070896 C618.985326,389.070896 618.691743,389.073517 618.39816,389.081381 C608.290523,389.348753 600.028263,393.985823 593.574683,402.961136 C592.95082,403.828785 592.382003,404.746238 591.815807,405.663691 C590.138191,403.849755 588.232524,401.954559 586.072593,399.964996 C576.59144,391.233464 568.955666,386.887358 563.146919,386.887358 C563.042068,386.887358 562.934596,386.889979 562.829745,386.8926 C553.545188,387.149487 548.74039,394.027764 548.368169,407.522189 L548.90291,418.125325 C547.296068,411.081907 544.132189,404.193145 539.421757,397.459039 C534.84501,390.926773 529.353438,387.663261 522.960148,387.663261 C522.784523,387.663261 522.608897,387.665882 522.43065,387.671125 C515.838143,387.854615 510.868205,391.267541 507.50773,397.902038 C506.225927,400.423723 505.18528,403.218023 504.375306,406.279695 C501.801214,403.41462 498.883734,400.659639 495.583549,398.02786 C487.83768,391.846847 479.77988,388.769447 471.418012,388.769447 C471.098216,388.769447 470.781042,388.77469 470.461246,388.782554 C461.805795,389.023713 454.442633,393.055264 448.361275,400.845751 C442.306129,408.599541 439.220888,419.721694 439.076732,434.225317 C438.919441,450.458995 446.065037,500.25835 474.817806,500.538828 C474.88858,500.538828 474.959355,500.538828 475.030129,500.538828 C481.01188,500.541449 486.034243,498.040734 490.081492,493.03144 C494.18903,487.946129 496.307021,481.059988 496.422357,472.370396 C496.582255,460.094874 493.329252,450.181137 486.681698,442.652779 C480.055114,435.153255 470.026115,429.39165 456.665475,425.38369 C458.822784,415.831693 464.180671,410.961327 472.762726,410.785701 C472.954079,410.780458 473.145432,410.777837 473.334164,410.777837 C483.481121,410.777837 493.132656,416.340224 502.275665,427.496454 C502.398865,439.672367 503.748821,452.270309 506.35699,465.321735 C508.784291,477.479299 513.492102,495.990882 514.973122,501.747245 C515.17496,502.523148 515.673003,502.997603 516.210364,502.997603 C516.359777,502.997603 516.511811,502.963526 516.661223,502.887508 L523.99293,499.141678 C527.437286,497.382789 529.363924,491.961952 528.32852,486.876641 C527.36389,482.13734 526.042768,475.898659 524.46476,469.002033 C521.01254,453.926967 519.05969,440.65011 518.616695,429.155733 L518.650771,426.786083 C518.808048,415.716356 521.492234,410.125134 526.716435,410.020283 C526.76624,410.017661 526.813423,410.017661 526.863227,410.017661 C530.978629,410.017661 535.164806,413.509226 539.413893,420.510704 C547.608,433.999886 558.968607,496.384076 560.478461,502.213835 C560.682921,503.000224 561.194069,503.477299 561.747158,503.477299 C561.901814,503.477299 562.05909,503.440601 562.213745,503.361962 L569.778746,499.563707 C573.335817,497.778605 575.333228,492.279129 574.276854,487.1178 C573.293876,482.302482 565.810135,443.486351 564.601727,421.976007 L564.433966,417.852711 C564.523089,412.573423 565.671208,409.915431 567.886185,409.870869 M1327.12809,301.409561 L1069.96525,312.696856 L1069.96525,676.228479 L1327.12809,697.683775 L1327.12809,301.409561 Z M1353.94373,452.459042 L1353.94373,699.922361 L1646.70873,724.350205 L1646.70873,455.098686 L1353.94373,452.459042 Z M2023.45152,270.842645 L1680.29775,285.907225 L1680.29775,727.15499 L2023.45152,755.787391 L2023.45152,270.842645 Z M2059.7955,824.420748 L1831.76028,807.010109 L0,667.14045 L0,634.673095 L0,233.793267 L2059.7955,1.86254185e-14 L2059.7955,824.420748 Z M727.600489,295.891736 C728.038242,295.273111 728.50745,294.675456 729.005492,294.098771 C728.392114,293.668878 727.812812,293.173454 727.27545,292.620361 C727.199433,292.544343 727.126038,292.465704 727.052642,292.387065 L727.600489,295.891736 M636.980381,321.37072 L637.86375,316.846365 C637.129793,318.269728 636.170406,319.52795 635.032773,320.563361 C635.703819,320.773065 636.356517,321.043058 636.980381,321.37072 M429.511684,432.710209 C429.70828,424.020617 430.924551,416.293041 433.150014,409.582526 C430.767275,408.426535 428.814425,406.387168 427.726595,403.760631 C425.794716,399.078999 424.156418,396.284699 422.984708,394.649011 C422.625594,396.059267 422.297934,398.19038 422.271722,401.293993 C422.216675,408.140814 424.767176,419.013944 429.511684,432.710209 M492.915091,435.250243 C492.844316,433.871442 492.791891,432.500505 492.752572,431.134811 C486.262294,423.989162 479.740561,420.371775 473.334164,420.371775 L472.959322,420.374396 C472.403611,420.387503 471.813825,420.397988 471.216174,420.500218 C480.133752,424.419054 487.402549,429.354952 492.915091,435.250243 M738.801198,442.79695 C738.612466,440.545258 738.2717,435.58839 738.051513,432.379926 C728.937339,421.189619 719.516476,415.52238 710.024838,415.52238 L709.503204,415.527623 C707.739086,415.564321 706.174184,415.789752 704.811121,416.416241 C716.294928,420.896034 725.437936,426.707444 732.082869,433.76659 C734.698902,436.53992 736.937471,439.554409 738.801198,442.79695 M855.054757,485.744241 C852.669397,478.27093 849.437364,467.838178 844.960226,452.849615 C842.338951,445.46805 839.874952,438.705109 837.573472,432.547688 C837.513183,432.387789 836.881455,430.796664 833.287687,423.76373 C831.48425,420.24071 829.219468,417.325831 826.73712,415.336268 C825.969086,414.720264 825.269206,414.198626 824.716117,413.797568 C824.668934,419.766256 825.992678,432.555552 833.35584,458.372683 C835.872264,467.190718 838.294323,476.724367 838.456842,485.581721 C840.19999,484.753392 842.097793,484.310393 844.029673,484.310393 L844.08472,484.310393 L844.116175,484.310393 L849.607747,484.347091 C851.544869,484.360198 853.400732,484.858244 855.054757,485.744241 M2033.04539,76.775098 L2033.04539,87.2078506 L2033.04539,239.376624 L2033.04539,248.514457 L2023.91549,248.957456 L1670.85592,266.087616 L1660.79808,266.575177 L1660.79808,256.504163 L1660.79808,116.90974 L1660.79808,108.091705 L1669.58722,107.3525 L2022.64679,77.6479891 L2033.04539,76.775098 M1652.26583,108.80994 L1652.26583,119.242692 L1652.26583,257.846266 L1652.26583,266.984099 L1643.13855,267.427098 L1350.80607,281.616166 L1340.74823,282.103727 L1340.74823,272.035334 L1340.74823,143.835678 L1340.74823,135.017643 L1349.53737,134.275817 L1641.86723,109.685452 L1652.26583,108.80994 M1332.2186,135.728014 L1332.2186,146.163388 L1332.2186,273.374815 L1332.2186,282.512649 L1323.09132,282.955647 L1070.42922,295.223306 L1060.37139,295.710867 L1060.37139,285.639853 L1060.37139,167.424708 L1060.37139,158.604052 L1069.16052,157.864847 L1321.82263,136.603526 L1332.2186,135.728014 M964.094567,273.652673 L964.262328,273.652673 C970.542904,273.652673 975.552161,278.612162 975.911276,285.18899 C976.293982,292.195711 971.628112,298.020227 965.061817,298.741083 C823.588968,314.259148 821.630876,314.395455 820.902161,314.44526 C820.569259,314.468851 820.238979,314.479336 819.911319,314.479336 C816.039696,314.479336 812.364668,312.90656 809.567767,310.049348 C806.3069,306.720304 804.498221,301.860424 804.605693,296.717444 C804.80491,287.118263 811.515374,279.112829 819.885106,278.494204 C820.624306,278.439157 822.587641,278.294985 963.85603,273.660537 L964.094567,273.652673 M447.671879,299.674264 L447.965462,299.674264 C451.464864,299.674264 454.804369,301.100249 457.373219,303.687466 C460.489915,306.830399 462.254034,311.50941 462.212824,316.529189 C462.130834,325.918666 456.096658,333.326445 448.172543,333.76158 C447.572271,333.795656 445.975914,333.882159 343.182604,334.778642 C337.219202,334.778642 332.464209,329.963324 332.126064,323.57785 C331.772192,316.925004 336.097296,311.417664 342.18914,310.767583 C445.016527,299.828921 446.599778,299.734554 447.179079,299.697856 L447.671879,299.674264 M508.034606,266.19509 C512.815813,266.19509 517.429257,268.137469 521.078072,271.670974 C523.02568,267.683985 526.729542,264.936868 531.133284,264.648526 L536.470201,264.299894 L536.876499,264.278923 L537.172703,264.278923 C540.242216,264.278923 543.146589,265.510932 545.34846,267.746896 C547.79411,270.229262 549.165037,273.812572 549.107369,277.579372 L548.918637,289.760528 L551.807283,289.595387 L557.933203,271.068076 C559.608198,265.995871 563.865149,262.512171 568.777419,262.192373 L574.49442,261.817528 L574.921688,261.793936 L575.23362,261.793936 C577.909942,261.793936 580.431609,262.71401 582.476203,264.383775 C584.505071,262.310331 587.181393,260.989198 590.17751,260.792601 L632.212281,258.048106 L632.639549,258.024514 L632.943617,258.024514 C636.068177,258.024514 639.017111,259.280114 641.247817,261.558019 C643.714437,264.077083 645.085364,267.69447 645.006726,271.487483 L644.865177,278.276636 C644.715764,285.503546 639.659324,291.252045 633.100893,291.650482 L632.901676,291.660967 C633.973778,292.229788 634.969862,292.968993 635.853232,293.870718 C638.322474,296.392404 639.6934,300.012411 639.614762,303.800182 L639.523018,308.369099 L647.580818,267.133513 C648.770877,261.020654 653.389564,256.664062 659.072489,256.29446 L665.515583,255.872431 L671.371512,255.489722 L671.824993,255.463509 L672.152652,255.463509 C677.922079,255.463509 682.792409,259.699521 683.992953,265.762576 L684.863216,270.140138 L686.333752,264.027279 C687.723028,258.247324 692.315502,254.124028 697.762512,253.767532 L703.767854,253.374338 L709.836106,252.978522 L710.281723,252.952309 L710.596276,252.952309 C716.562298,252.952309 721.605632,257.544817 722.593853,263.86738 L724.240014,274.402363 C726.790515,261.298511 736.145846,251.258953 747.359662,250.527612 L773.580278,248.815906 C774.025895,248.787072 774.468891,248.771344 774.909265,248.771344 C780.48996,248.771344 785.826877,251.099054 789.929172,255.327202 C795.234634,260.78998 798.128522,268.992011 797.866394,277.836259 L797.59116,287.133991 C797.363109,294.916615 795.10357,301.060929 790.733904,305.663923 C791.155929,305.999448 791.562227,306.363808 791.944933,306.759624 C794.450872,309.336356 795.821799,313.014033 795.711706,316.856851 L795.677629,317.991871 C795.200557,334.209821 784.49789,347.334643 771.312875,347.872008 L746.384547,348.891692 C746.109313,348.902177 745.836701,348.90742 745.566709,348.90742 C740.53124,348.90742 735.692365,346.991253 731.784044,343.48134 C731.40658,344.147149 730.97407,344.778881 730.489134,345.366051 C728.237459,348.110546 724.99232,349.764583 721.589904,349.903512 L715.862418,350.139428 L715.576699,350.147292 L715.374861,350.147292 C709.335442,350.147292 704.263275,345.489252 703.314373,339.061837 L701.586953,327.315816 L698.103278,341.276831 C696.656334,347.069892 691.993085,351.11455 686.498892,351.33736 L680.952274,351.565413 L680.663933,351.575898 L680.456853,351.575898 C674.705775,351.575898 669.82496,347.360856 668.590339,341.337121 L666.215464,329.798182 L663.934954,341.88235 C662.771108,348.039771 657.950583,352.503836 652.20999,352.739753 L646.275423,352.980912 L645.987082,352.991397 L645.780002,352.991397 C643.266199,352.991397 640.846762,352.165689 638.838865,350.66893 C636.844074,352.396363 634.351241,353.468472 631.6356,353.578567 L589.763349,355.290272 L589.51957,355.298136 L589.351809,355.298136 C586.245597,355.298136 583.31239,354.0504 581.086928,351.785601 C580.158996,350.839314 579.38572,349.73837 578.782827,348.532575 C574.840429,353.190615 569.608363,356.113359 563.833694,356.349275 L531.007463,357.691378 L530.761063,357.699242 L530.582817,357.699242 C527.510682,357.699242 524.603688,356.467234 522.399195,354.228648 C521.62854,353.447502 520.965358,352.558883 520.417511,351.589004 C516.635011,355.835502 511.725362,358.480388 506.325535,358.700577 L474.938385,359.98239 L474.686742,359.992875 L474.49801,359.992875 C471.45471,359.990253 468.57655,358.771344 466.387785,356.558979 C463.949999,354.092341 462.573829,350.52738 462.614838,346.773686 L463.373318,281.58471 C463.457199,274.446925 468.366848,268.74823 474.794215,268.328823 L506.865518,266.234409 C507.258709,266.208196 507.646658,266.19509 508.034606,266.19509 M944.613249,462.170938 C950.636939,462.170938 956.280545,464.587773 960.498177,468.97582 C965.58083,474.262971 968.196862,481.820163 967.861339,490.252868 C967.250582,505.715885 956.794315,517.378025 943.307853,517.378025 L943.302611,517.378025 C937.181933,517.315114 931.491144,514.845854 927.286619,510.431594 C922.295711,505.191626 919.718997,497.684238 920.036171,489.290853 C920.623337,473.827836 931.187077,462.168318 944.613249,462.170938 M578.696324,504.659503 C577.364717,506.082866 575.818164,507.26507 574.085501,508.13534 L566.515258,511.936217 C565.036859,512.678044 563.388077,513.071238 561.747158,513.071238 C556.821782,513.071238 552.48095,509.595401 551.191283,504.617563 C550.847896,503.291188 550.286943,500.549313 549.151931,494.97382 C546.132222,480.118943 536.936788,434.906854 531.214544,425.491163 C530.205353,423.826641 529.329847,422.612982 528.603754,421.734848 C528.422886,423.006176 528.273473,424.696911 528.242018,426.919769 L528.213184,429.035154 C528.650937,439.808675 530.533012,452.532439 533.814849,466.860435 C535.508193,474.257728 536.87912,480.787373 537.728413,484.963096 C539.644565,494.378786 535.704788,503.936026 528.357354,507.687099 L521.023026,511.430307 C519.534141,512.190483 517.869631,512.591541 516.210364,512.591541 C511.295473,512.591541 506.967747,509.115704 505.683323,504.137866 C505.067323,501.749866 503.814353,496.834939 502.385758,491.020907 C501.106576,493.967243 499.49187,496.651448 497.541642,499.063039 C491.690955,506.303055 483.908389,510.130145 474.728683,510.130145 L474.72344,510.130145 C467.918609,510.064613 459.606546,507.996411 451.852813,500.717076 C451.457001,502.266261 450.930124,503.768263 450.269563,505.194247 L445.307489,515.907479 C443.477839,519.863012 439.732036,522.319165 435.532753,522.319165 C432.722746,522.319165 430.062152,521.207736 428.04377,519.186718 C425.716077,516.859008 421.430292,514.017525 416.502295,511.710786 C418.428932,517.661125 428.735786,551.554464 419.90471,569.397616 C416.887622,575.492126 412.457667,578.236622 409.097192,579.473873 C406.347474,580.653456 403.293688,581.251111 400.009231,581.251111 C399.692056,581.251111 399.372261,581.245868 399.044601,581.235383 C371.754504,580.289096 353.583824,550.325077 353.733237,522.935169 C353.835466,504.399995 359.04394,490.179472 369.243322,480.554078 C361.531531,459.394988 353.72013,438.209685 348.80786,431.444123 C347.261308,432.303908 345.526024,432.762635 343.73045,432.762635 C339.49709,432.762635 335.654301,430.157068 333.937366,426.125517 C330.419614,417.865817 331.15095,406.028051 335.607118,399.170744 C339.345056,393.422245 345.623011,389.99097 352.40425,389.99097 C356.026852,389.99097 359.662561,390.987062 362.920806,392.874394 C369.287884,396.562556 374.341703,404.028003 377.458399,409.634952 C380.614415,415.310055 383.537137,421.627375 386.391705,428.948651 C389.589661,437.153303 396.095667,454.946651 400.897843,468.171082 C401.233366,468.16584 401.571511,468.163218 401.907034,468.163218 C402.787782,468.163218 403.668531,468.184189 404.538794,468.228751 C397.899104,451.009466 388.192522,421.976007 388.357662,399.718595 C388.533287,376.410043 398.79558,350.936302 420.916522,350.084381 C421.196999,350.073896 421.477475,350.068653 421.757952,350.068653 C435.931187,350.068653 446.217071,363.353374 449.779384,375.699672 C450.678482,378.826877 451.247299,381.930489 451.485835,384.944978 C457.0875,381.311864 463.341863,379.385212 470.191255,379.193858 C470.600174,379.183373 471.009093,379.175509 471.418012,379.175509 C481.764186,379.175509 491.706683,382.840079 500.972891,390.061745 C507.216769,380.57528 515.777854,378.260677 522.16328,378.082429 L522.960148,378.071944 C528.682392,378.071944 536.596022,379.851803 543.817635,387.644912 C549.332799,378.926486 557.983007,377.429727 562.564996,377.303904 L563.013234,377.296041 L563.146919,377.296041 C571.230932,377.296041 580.075115,381.773212 590.856421,391.356665 C598.342783,383.841413 607.64831,379.770543 618.141275,379.492685 L619.278909,379.476958 C628.372113,379.476958 649.358042,382.855806 660.967671,411.915479 C661.518139,411.779171 662.065985,411.653349 662.616453,411.53277 C664.834052,402.617747 668.55102,395.068418 673.70969,389.023713 C682.711149,378.475623 693.793901,372.944691 706.648635,372.585574 C707.141435,372.572468 707.631613,372.564604 708.124413,372.564604 C719.925395,372.564604 731.265031,376.551593 741.823528,384.407613 C741.873333,384.446932 741.925758,384.486252 741.978184,384.525571 C745.28099,377.13352 750.395099,373.183229 757.281189,372.737609 L757.462057,372.724503 L757.642925,372.71926 L758.31135,372.711396 C765.624708,372.711396 769.16343,376.276357 771.664126,379.767921 C773.873861,382.853185 774.374525,385.896508 776.133401,406.885214 C776.610473,412.547211 777.100651,418.403183 777.485979,421.037584 L777.517434,421.25253 L777.538404,421.467476 C778.039068,426.447936 779.056123,431.197722 780.563356,435.593633 C786.130945,451.835174 791.976388,461.022812 796.262174,466.079289 C796.259552,466.071425 796.256931,466.06094 796.25431,466.053076 C795.297544,462.642772 794.212336,458.781605 793.093052,454.272978 C785.003796,421.61689 784.796715,398.795899 792.458703,384.509843 C797.441747,375.219975 805.89536,369.733606 815.643883,369.460991 L816.372598,369.450506 C827.219435,369.450506 838.422765,376.438877 847.47665,384.132377 C849.238147,382.596298 851.09401,381.133616 853.038996,379.757436 C859.636746,375.078425 866.923892,371.759866 874.81393,369.827972 L874.027548,368.897413 L882.502131,368.409852 C884.895355,368.105782 887.341005,367.91967 889.831216,367.848895 C890.402654,367.833167 890.96885,367.827924 891.529803,367.827924 L892.499675,367.833167 L893.212661,367.793848 C894.903384,367.694238 896.567894,367.649676 898.20357,367.649676 C932.804403,367.649676 957.370995,389.288463 964.726294,402.929681 C971.219193,414.971908 972.217899,430.985397 967.156216,441.874255 C963.153529,450.477344 953.931882,456.485351 944.731206,456.485351 C941.892365,456.485351 939.16886,455.932258 936.64195,454.841799 C931.263094,452.527196 928.445223,446.285894 930.091383,440.293614 C930.88563,437.428539 930.830583,434.875398 929.915758,432.251482 C929.058601,429.795329 928.052031,427.614412 926.95896,425.682518 C925.816083,431.800619 923.323251,438.419388 919.414929,445.740664 C914.785757,454.401422 910.088432,462.367536 905.451396,469.413576 C901.401525,475.570997 900.387092,478.145108 900.151177,478.879071 C900.166905,479.481969 900.271756,480.116322 900.463109,480.774267 C901.587636,484.611842 903.128946,489.870159 901.3491,496.323786 C899.668862,502.423539 895.734328,507.259828 890.523233,509.608508 L877.631801,515.362249 C876.197964,516.009709 874.680245,516.337371 873.120586,516.337371 C871.361711,516.337371 869.691958,515.928449 868.205695,515.184001 L870.664451,522.848667 C874.15599,533.737525 869.343329,545.999941 859.938193,550.186148 L851.626129,553.884795 C850.252581,554.495557 848.797773,554.804869 847.295782,554.804869 C841.88547,554.802248 837.366391,550.781182 836.556417,545.25025 L831.001935,507.613702 C827.235162,511.393609 821.069923,514.940221 811.200821,514.940221 L810.76569,514.9376 C799.195381,514.819641 789.617241,509.571809 782.146606,503.029058 C780.219969,506.208688 777.501706,508.785421 774.167444,510.347713 L765.46481,514.423826 C764.007381,515.092256 762.466071,515.430403 760.874957,515.430403 C755.745121,515.430403 751.370213,511.957188 749.988801,506.777509 L749.527456,505.092017 C748.455355,501.225607 746.468428,494.06423 744.379272,483.364106 C742.824855,490.302673 739.875921,496.25039 735.561302,501.118134 C728.997628,508.528534 720.418194,512.444748 710.750931,512.444748 L710.436378,512.444748 L710.389195,512.442127 C694.803092,512.290092 682.026996,502.890129 672.41478,484.499126 C671.049096,481.888317 669.806611,479.287993 668.682084,476.685047 C667.594255,488.664364 664.702988,499.537494 658.671434,506.206067 C655.137954,510.114417 650.723727,512.484068 645.638453,513.162983 C648.731558,519.501273 651.785343,526.64168 654.82078,534.634007 C662.831397,555.71708 667.174851,573.982261 667.733182,589.010143 L667.874731,593.890993 L667.882595,594.137395 L667.877352,594.383797 C667.675514,603.31979 665.840622,611.000183 662.411993,617.225758 C658.189119,624.872074 651.179829,629.081874 642.67379,629.081874 C642.26225,629.081874 641.842846,629.071388 641.415578,629.053039 C626.144029,628.329562 613.430843,616.573056 602.552551,593.112469 C593.142173,572.823649 585.972985,548.560946 581.238962,521.003275 C580.303166,515.550982 579.456494,510.101311 578.696324,504.659503 M1336.71933,291.385731 L1336.71933,301.409561 L1336.71933,697.683775 L1336.71933,708.111285 L1326.3286,707.243636 L1069.16577,685.78834 L1060.37139,685.054377 L1060.37139,676.228479 L1060.37139,312.696856 L1060.37139,303.514461 L1069.54323,303.113403 L1326.70868,291.826108 L1336.71933,291.385731 M1344.34987,442.778601 L1344.34987,300.2326 L1344.34987,291.050205 L1353.52433,290.649147 L1494.23701,284.473377 L1495.1728,284.431436 L1496.40218,284.37901 L1506.41545,283.938633 L1506.41545,283.938633 L1646.28932,277.802182 L1656.29997,277.361805 L1656.29997,287.385635 L1656.29997,448.091966 L1656.29997,457.772407 L1656.29997,724.350205 L1656.29997,734.777715 L1645.90924,733.910067 L1353.14687,709.482222 L1344.34987,708.74826 L1344.34987,699.922361 L1344.34987,452.459042 L1344.34987,442.778601 M2033.04539,260.821436 L2033.04539,270.842645 L2033.04539,755.787391 L2033.04539,766.214901 L2022.65465,765.347253 L1679.49826,736.714852 L1670.70388,735.980889 L1670.70388,727.15499 L1670.70388,285.907225 L1670.70388,276.727451 L1679.87572,276.323772 L2023.02949,261.259192 L2033.04539,260.821436 M2050.20426,814.069256 L2050.20426,10.7446866 L9.59124629,242.359658 L9.59124629,634.673095 L9.59124629,658.25164 L1832.49161,797.445005 L2050.20426,814.069256 Z" id="path40" fill="#252F38" fill-rule="nonzero"></path></g><g id="g42" transform="translate(769.490941, 644.424049)"><path d="M20.0300987,39.0232129 L20.0012647,39.0232129 C15.1938458,39.0101065 10.6328268,34.8632184 6.31296514,26.5956552 C2.00358857,18.3411984 -0.0986742163,9.47860133 0.00355551998,0 C18.3131634,9.34229401 27.4850057,19.2796219 27.3565632,29.7254809 C27.2805462,35.9196001 24.8322751,39.0232129 20.0300987,39.0232129 M16.8033089,25.570729 C16.4153601,24.7423999 15.9120753,23.898343 15.290833,23.043801 C15.8308157,24.0241652 16.3367219,24.8603581 16.8033089,25.570729" id="path44" fill="#252F38" fill-rule="nonzero"></path></g><g id="g46" transform="translate(796.697858, 494.005251)"><path d="M2.28624754,18.5273103 C0.991337547,18.5273103 -0.0257172658,16.9833678 0.000495487096,15.0200181 L0.12107415,5.03812825 C0.144665628,3.02497399 1.2508438,1.32637508 2.59031547,1.24511494 L23.0021862,0.00524258923 C23.0546117,0.00262129462 23.1070372,0 23.1620839,0 C25.2224063,0 26.8344906,2.43780399 26.789929,5.54665941 L26.7112907,11.4236019 C26.666729,14.6084749 24.8999895,17.287438 22.7688927,17.4053962 L2.37799218,18.5246891 C2.34653687,18.5273103 2.31508157,18.5273103 2.28624754,18.5273103" id="path48" fill="#252F38" fill-rule="nonzero"></path></g><g id="g50" transform="translate(796.351590, 524.408075)"><path d="M2.29673016,16.5692033 C0.996577615,16.5692033 -0.0257197481,15.0173969 0.00049300477,13.0514259 L0.102722741,4.76027102 C0.123692943,2.75498064 1.22724984,1.07473079 2.56410024,1.00657713 L22.3783202,0.00262129462 C22.4228818,0 22.4674435,0 22.5120052,0 C24.5801914,0 26.2027608,2.45091047 26.1608204,5.56238717 L26.1031523,9.74597338 C26.0612119,12.9203612 24.2970937,15.5731113 22.1686181,15.6700992 L2.37274714,16.566582 C2.34653439,16.5692033 2.32294291,16.5692033 2.29673016,16.5692033" id="path52" fill="#252F38" fill-rule="nonzero"></path></g><g id="g54" transform="translate(1247.648819, 680.813123)"><path d="M5.0049063,5.00405142 L4.3574513,21.8353842 L10.7717119,21.88781 C10.8110311,21.88781 10.8529715,21.88781 10.8949119,21.88781 C14.8451737,21.88781 16.5175474,20.3831869 16.6617175,16.7264809 C16.7691898,13.9426661 16.1584327,12.7316279 14.2658719,11.8141748 L17.7783808,5.04074955 L13.6367658,5.03026437 L10.6668609,11.3108863 L8.60129599,11.3030224 L8.8450746,5.0145366 L5.0049063,5.00405142 Z M10.0639676,26.8315717 C10.0325123,26.8315717 9.99843572,26.8315717 9.96960169,26.8315717 C6.6484459,26.8001162 4.35483002,25.6362613 2.53566497,23.0909843 C0.810865832,20.605997 -0.127550722,17.0462789 0.0139981436,13.3738451 C0.152925734,9.69354749 1.36133364,6.13907199 3.28010715,3.66981246 C5.19363812,1.20317423 7.71792622,0 10.8529715,0 L10.8713204,0 C13.9696678,0.00262129462 16.4205602,1.2162807 18.1584657,3.70651059 C19.9016138,6.19936177 20.8452729,9.78005021 20.7011027,13.4839395 C20.5569326,17.1773436 19.3301758,20.7449256 17.3930533,23.2115638 C15.4873862,25.5916993 12.981447,26.8315717 10.0639676,26.8315717" id="path56" fill="#252F38" fill-rule="nonzero"></path></g><g id="g58" transform="translate(1178.611348, 603.770128)"><path d="M17.158868,61.070922 L-6.31632776e-14,10.6136219 C6.90443911,3.66981246 12.7656107,0.133686025 17.5704083,0.0314555354 L18.7237694,0.00524258923 C18.8941523,0.00262129462 19.0645352,0 19.2296755,0 C28.5352028,0 33.0070985,5.63316213 32.6060433,16.8811373 C32.1945031,28.320467 27.0279695,43.0757344 17.158868,61.070922 M18.6005695,35.5159208 C21.347666,28.1972662 22.8286865,21.8511119 23.0174183,16.5377477 C23.1642097,12.4590133 22.4119037,10.5585747 21.9924997,10.1260611 C21.8168742,9.94257048 21.0173853,9.59655959 18.9570629,9.59655959 L18.9282289,9.59655959 L17.7748677,9.62015124 C17.6673955,9.62277253 15.6228007,9.71976044 11.093237,13.4393775 L18.6005695,35.5159208 Z" id="path60" fill="#252F38" fill-rule="nonzero"></path></g><g id="g62" transform="translate(852.784834, 516.697275)"><path d="M2.37556,21.7148046 C1.02560322,21.7148046 -0.0307707208,20.1341639 0.00068458271,18.1314949 L0.205144055,4.92279129 C0.236599359,2.87818149 1.38471794,1.16123351 2.77399384,1.09045856 L23.5764345,0.00524258923 C23.6262388,0.00262129462 23.6734217,0 23.7206047,0 C25.8674291,0 27.5398028,2.49547247 27.4873773,5.66461766 L27.332722,14.7290544 C27.2776753,17.9663533 25.4401613,20.668908 23.2304262,20.7711385 L2.45419825,21.7121833 C2.4279855,21.7148046 2.40177275,21.7148046 2.37556,21.7148046 M9.69416061,11.7827193 L17.7939013,11.4131168 L17.8227353,9.91111494 L9.71513081,10.3331434 L9.69416061,11.7827193 Z" id="path64" fill="#252F38" fill-rule="nonzero"></path></g><g id="g66" transform="translate(1255.879991, 694.775711)"><path d="M2.41943709,4.60037205 C2.40895199,4.60037205 2.39846689,4.60037205 2.38798179,4.60037205 L0,4.58464428 L0.175625444,0 L2.65797314,0.0131064731 C4.06821925,0.0209703569 4.69732532,0.747068966 4.63703599,2.31984574 C4.57674666,3.88213733 3.90045763,4.60037205 2.41943709,4.60037205" id="path68" fill="#252F38" fill-rule="nonzero"></path></g><g id="g70" transform="translate(157.342049, 57.088913)"><path d="M153.153251,367.502884 L6.57288838e-14,355.628419 L2326.72521,0 L2946.25314,176.148377 C2946.5939,208.343117 2947.05263,251.295651 2947.48514,291.390973 L2220.78112,133.012353 C2220.53472,132.957306 2220.28832,132.931093 2220.04192,132.931093 C2219.91348,132.931093 2219.78242,132.938956 2219.64611,132.952063 L153.153251,367.502884 Z M152.980247,357.867005 L2218.69721,123.405308 C2219.16118,123.360746 2219.60155,123.337154 2220.04192,123.337154 C2220.98558,123.337154 2221.93448,123.442006 2222.82572,123.641224 L2937.76545,279.453598 L2936.73791,183.414606 L2326.10921,9.79839927 L83.8860518,352.509079 L152.980247,357.867005 Z" id="path72" fill="#252F38" fill-rule="nonzero"></path></g><g id="g74" transform="translate(-0.000000, 861.635530)"><path d="M2642.09084,167.540045 L2478.82733,188.762047 L2478.82733,315.758528 L2478.82733,315.973474 C2394.92555,307.160682 0,55.6238717 0,55.6238717 L0,0 L77.0235531,5.88218512 L2481.08424,189.110679" id="path76" stroke="#252F38" stroke-width="4.87999988"></path></g><g id="g78" transform="translate(2481.083459, 1147.448651)"><line x1="0" y1="30.3965324" x2="176.35678" y2="0" id="path80" stroke="#252F38" stroke-width="4.87999988"></line></g><g id="g82" transform="translate(152.344588, 0.000000)"><path d="M-2.45983261e-15,399.383069 L-2.45983261e-15,371.822777 L2335.51172,0 L2948.99499,182.903453 C2949.04742,188.001871 2951.01599,207.079653 2951.09987,215.103436 L2335.96258,40.2526001 C2335.96258,40.2526001 1306.06876,197.94182 604.783256,305.317912 C242.769411,360.747808 -2.45983261e-15,399.383069 -2.45983261e-15,399.383069 M9.59386756,388.1482 C61.2041567,379.96714 288.353388,344.063267 603.33107,295.836689 L2334.51039,30.7687562 L2336.57334,30.4542008 L2338.58386,31.0230218 L2940.74846,202.188318 C2940.60429,200.293122 2940.44963,198.371713 2940.30284,196.518457 C2940.10625,194.09376 2939.94111,191.98886 2939.8048,190.172303 L2334.86165,9.81674834 L9.59386756,380.011702 L9.59386756,388.1482 Z" id="path84" fill="#252F38" fill-rule="nonzero"></path></g><g id="g86" transform="translate(2387.891093, 17.680195)"><path d="M308.096834,598.30936 L308.096834,858.483336 C308.513617,859.330014 308.508374,863.382536 308.670893,864.331444 C309.656493,870.121884 311.695845,872.446973 313.056287,878.072271 C313.347248,879.275445 313.727333,880.350176 314.175571,881.317434 C317.05111,887.522038 322.938494,888.733076 329.179751,883.55864 C332.385571,880.90589 335.704105,879.136516 339.132733,878.077513 C344.086943,876.549299 349.269205,876.520464 354.671653,877.532284 C355.793559,877.741988 356.92595,877.988389 358.066205,878.284596 C359.767412,878.724973 361.389982,879.479906 363.096432,879.836402 C365.948379,880.444542 369.151578,881.33054 371.536938,879.259717 C374.407235,876.772109 372.024496,873.865093 371.159475,871.214964 C367.948412,861.382488 367.266881,852.223685 377.298501,845.507928 C379.875215,843.788359 380.349666,841.628412 378.168765,838.889159 C375.335166,835.318956 374.436069,831.009547 374.666741,826.485193 C374.894792,822.078797 376.297174,818.820527 379.049513,817.216295 C380.596066,816.317191 382.562022,815.931861 384.997187,816.17302 C395.343361,817.203189 405.933313,817.323768 415.920372,820.81009 C422.74093,823.187604 428.431718,827.234883 431.967819,833.722587 C433.522235,836.566692 435.700515,838.157818 438.864394,838.383249 C442.730775,838.663728 446.597156,839.022845 450.463537,839.298081 C459.682563,839.950783 468.891103,840.108061 478.060324,837.478902 C481.132458,836.598147 484.139061,835.544387 486.752472,834.005687 C489.591314,832.333301 491.966189,830.092094 493.40789,826.820719 C496.058,820.836303 499.67536,815.91089 504.031919,811.735168 C508.118487,807.821575 512.857753,804.565927 518.076712,801.740172 C519.099009,801.1897 520.02432,800.429524 520.912932,799.677213 C522.037459,798.728304 523.12791,797.661437 522.692778,795.994294 C522.215706,794.196086 520.66129,794.041429 519.188133,794.088613 C511.526145,794.32715 506.236412,790.067547 502.925741,784.004492 C500.658338,779.841876 497.976773,779.03976 493.87972,779.118399 C488.359314,779.212766 483.289768,777.889012 480.851982,772.148377 C479.258246,768.392062 477.669754,764.593806 476.581924,760.67497 C474.385296,752.745554 474.547815,752.803222 466.054883,754.462502 C462.980127,755.0654 459.94469,755.55296 456.94333,755.691889 C453.706055,755.841303 450.513342,755.573931 447.357326,754.583081 C445.155455,753.89106 442.969311,752.855648 440.804138,751.348404 C434.911511,747.25132 432.984874,742.071642 433.456703,735.6285 C433.899699,729.494671 438.492173,726.197082 443.669192,724.923133 C450.219759,723.313658 452.007468,719.525887 451.737477,713.483803 C451.483213,707.795594 454.683791,703.483564 459.732367,702.191266 C465.496551,700.704992 470.521536,698.06797 475.748359,695.546284 C483.263555,691.93414 484.930686,687.745311 480.768101,680.497432 C478.146826,675.946864 474.592376,671.875994 472.374777,667.157663 C466.70758,655.104951 467.092908,642.939523 471.488786,630.905159 C471.918676,629.728198 472.372156,628.551236 472.878062,627.376896 C473.842692,625.122583 475.564869,622.80798 478.128477,623.680871 C482.726194,625.25889 488.582123,626.485656 489.835092,631.819991 C492.29647,642.297305 498.584909,643.660379 508.12373,642.884475 C513.531421,642.444098 517.6809,642.769138 520.755655,643.951342 L520.755655,596.078639 L308.096834,598.30936 Z M520.755655,486.340761 L308.096834,474.012812 L308.096834,598.30936 L520.755655,596.078639 L520.755655,486.340761 Z M520.755655,343.716121 L308.096834,307.028481 L308.096834,433.516432 L520.755655,450.473587 L520.755655,343.716121 Z M279.480371,472.350911 L26.2415869,457.663798 L26.2415869,601.266181 L279.480371,598.610809 L279.480371,472.350911 Z M279.480371,302.089962 L34.0556086,259.758676 L34.0556086,411.673184 L279.480371,431.243769 L279.480371,302.089962 Z M245.002738,994.452509 L94.5467784,1013.45165 L91.8494862,1013.79766 L1.46791416,1006.89579 L-2.94500926e-16,187.185513 L713.673653,342.858957 C713.809959,355.616798 713.943644,367.921155 714.069466,379.305438 L547.689259,348.361055 L547.689259,452.615184 L715.705141,466.775418 C716.066877,477.462436 716.436477,488.152075 716.591132,498.857443 L547.689259,487.908295 L547.689259,595.795539 L717.962059,594.07597 L547.689259,595.795539 L547.689259,684.951011 C547.676153,685.003437 547.657804,685.053242 547.644697,685.105668 C547.183353,687.150277 546.575217,688.749267 545.746894,690.007489 C547.912067,693.179255 551.277785,693.866034 555.906957,693.664195 C561.964724,693.399444 564.384161,691.003581 565.715769,685.105668 C567.427462,677.511777 572.688362,672.353069 579.532511,670.408069 C582.594161,669.537799 585.965121,669.29664 589.488115,669.789443 C591.802701,670.114484 594.133015,670.373992 596.468571,670.392341 C607.310166,670.47098 608.377025,671.671533 608.539544,682.715047 C608.641773,689.816134 610.489772,693.008871 616.09668,694.101951 C617.271012,694.332625 618.60262,694.476796 620.128202,694.537086 C625.145323,694.738925 630.151958,694.670772 635.100926,693.968265 C637.661912,693.601284 640.209792,693.077025 642.731459,692.306364 C649.022519,690.39544 653.40267,692.495097 656.453835,698.382525 C658.241544,701.83477 659.549561,705.221483 659.743535,709.132454 C659.97945,713.987092 663.245559,716.778771 667.578527,717.289923 C669.117216,717.473414 670.655904,717.646419 672.194593,717.803697 C681.888069,718.784061 691.568438,718.936096 700.918527,714.723676 C706.116516,712.385481 710.166387,709.979132 711.445569,703.297452 C712.483594,697.839917 713.542589,692.476748 713.747049,686.930089 C714.328972,671.157759 713.361721,655.34611 715.369618,639.602614 C717.359166,623.906302 717.453532,608.115624 717.401106,592.298732 C717.332953,567.737201 715.823099,543.102274 716.428613,518.656081 C717.110145,490.804826 715.191371,463.118712 714.837499,435.369687 C714.420716,402.399043 712.22933,196.06908 711.888565,163.111543 C711.490131,124.992677 704.189879,88.8607518 689.859367,53.8586048 C689.096576,52.0105921 688.103113,49.9869526 686.63782,48.7261099 C677.958777,41.2344499 669.030714,34.4033561 656.844405,33.2709569 C647.54412,32.4059296 638.33558,30.4845207 629.103448,28.9458207 C625.313084,28.3193313 621.76912,27.097808 619.042994,24.0806979 C616.374536,21.1317415 612.151661,18.9272327 614.120239,13.8681341 C615.907949,9.28348984 619.994517,8.81952069 624.225255,8.38700708 C627.672232,8.0331323 631.119209,7.84702039 634.568807,7.7421686 C638.752363,7.61634646 642.938539,7.61896776 647.124716,7.66877235 C650.597906,7.70809177 654.073717,7.77100284 657.546906,7.80507967 C661.020096,7.83653521 664.860265,8.59933194 667.843276,6.55734344 C670.994049,4.39739667 674.330932,3.6031444 677.75956,3.3121807 C678.173722,3.27810387 678.587883,3.24926963 679.004666,3.22829927 C680.88412,3.12869008 682.792409,3.14966044 684.711182,3.15490302 C689.972082,3.17587338 695.424334,3.86789516 700.449319,2.72238941 C703.980177,1.91765197 707.490065,1.21514501 710.992088,0.722341621 C719.618705,-0.493939081 728.187654,-0.407436358 736.837863,2.81151343 C738.473539,3.41965378 740.253384,3.4117899 741.94935,2.99238276 C747.102777,1.71843358 751.889225,2.78005789 756.618006,4.31089395 C757.687486,4.65690484 758.754345,5.0186435 759.818583,5.39348863 C763.5539,6.69889335 769.496332,5.36989697 775.580312,4.13002462 C783.34715,2.54414138 791.34204,1.10242934 795.263468,5.46950617 C795.410259,5.63202644 795.827042,5.60581349 796.120625,5.6005709 C802.697404,5.3594118 809.182439,7.17072638 815.701551,8.4237052 C821.193123,9.48008693 826.713529,10.1091976 832.330922,8.79330774 C833.785729,8.45253944 835.243158,8.00954065 836.713694,7.37780865 C838.362476,6.66481652 840.750458,7.46169008 842.755733,7.79721579 C854.556715,9.79464229 873.083888,9.99648197 884.88487,11.980802 C887.896715,12.4893332 882.305535,12.4893332 878.195375,17.9652176 C875.844091,21.0924221 877.36181,20.8407778 874.467922,21.4882376 C871.146766,22.2300639 869.191295,23.058393 862.425783,27.9759417 C856.973531,31.9524457 850.55927,32.2512733 845.429434,32.7493192 C831.167075,34.117635 817.463048,44.1231166 803.473302,47.4469181 C793.543911,49.8060833 787.260714,56.7027094 786.243659,66.5613985 C783.721993,91.0128347 780.825483,182.537957 780.710147,190.050588 L1214.52597,315.395654 L1213.33066,336.9925 L780.537143,214.106209 C780.445398,220.523138 780.353654,227.280835 780.256667,234.290177 L1211.21267,356.649588 C1216.16426,358.059845 1215.46438,365.286754 1210.33455,365.721889 L774.841112,398.608651 C774.641895,403.998033 774.67335,411.977254 774.463648,414.564472 C773.035053,467.076867 774.555393,500.299155 772.43216,534.187251 C773.200194,569.849965 773.137283,605.987132 773.035053,632.598515 C772.885641,668.355595 768.927515,694.510873 777.465008,729.547097 C780.028616,740.063731 784.259354,750.223869 785.509702,760.926614 C786.440255,768.929427 787.829531,776.746127 791.669699,783.582464 C797.190105,793.412319 801.426086,799.061209 807.481232,801.315522 C809.926882,802.225111 812.681842,802.576365 815.932223,802.419087 C817.924393,802.32472 820.081702,802.05997 822.501139,801.590758 C823.38713,801.422995 824.252151,801.354841 825.106687,801.33125 C828.64803,801.23164 831.979671,802.172685 835.450239,802.644518 C843.127954,803.706143 847.146369,799.67197 846.422898,791.981092 C846.263,790.248416 845.979902,788.431859 845.290507,786.861703 C842.320602,780.106627 844.873724,775.128789 850.858095,772.355459 C856.690433,769.647662 860.593512,765.330389 864.459893,760.554391 C864.94745,759.948872 865.44025,759.3984 865.930428,758.879383 C872.460025,751.985379 879.133792,752.682643 885.812801,760.903023 C886.709277,762.001345 887.59789,763.267431 888.635915,764.145564 C889.582195,764.945059 890.646433,765.424756 891.967556,765.12855 C899.702939,763.395874 907.763361,764.939817 915.333604,763.314614 C915.899799,763.194034 916.465995,763.060348 917.024326,762.900449 C924.04148,760.895159 930.285358,762.331628 936.74418,764.23731 C938.814988,764.84545 940.280281,766.04076 940.980161,768.237405 C943.674832,776.698944 939.811072,783.097524 931.05077,784.028084 C926.843623,784.476325 923.48577,785.43834 923.367812,790.468605 C923.207915,797.320669 919.493567,800.466222 912.895818,800.809612 C908.371496,801.042907 906.515634,804.261857 907.032025,807.978853 C907.860348,813.950162 907.608705,820.136417 910.94821,825.732881 C915.988922,834.149858 914.657315,839.956026 907.509097,846.684889 C903.052929,850.871097 897.613783,851.324581 892.0593,851.778065 C882.132531,852.585423 877.893929,859.167494 881.364497,868.711628 C882.389416,871.534762 883.167935,874.457506 883.346181,877.456267 C883.409092,878.51527 883.503458,879.561166 883.660734,880.572986 C884.255764,884.397455 885.802316,887.697665 890.379063,889.021418 C896.397511,890.764579 897.818242,885.430245 900.565339,882.182461 C900.908726,881.773539 901.425117,881.08676 901.692487,880.628033 C906.132927,872.976474 914.846046,867.17817 924.117497,864.732503 C931.19494,862.866141 938.594801,862.952643 944.673538,865.660441 C954.781175,870.17431 964.867843,875.110208 973.287379,882.499637 C976.771054,885.569173 980.553554,887.529902 984.931084,888.07251 C990.401685,888.751425 995.869666,889.480145 1001.34813,889.928386 C1009.51078,890.596817 1017.6944,890.641379 1025.92783,888.932294 C1030.85321,887.90999 1035.27268,885.988581 1039.80748,883.844362 C1045.8967,880.96618 1043.84425,879.390782 1040.0067,876.462796 C1031.37746,869.87024 1030.31584,865.875387 1034.65143,856.171354 C1036.14032,852.823961 1036.26614,850.658772 1033.70777,847.625934 C1023.62373,835.659724 1024.92912,819.142947 1036.00401,808.775726 C1036.74845,808.078462 1037.53746,807.407411 1038.37102,806.770436 C1043.5795,802.775583 1047.05531,803.084896 1052.37125,807.396925 C1056.89295,811.074602 1061.44611,814.823053 1066.44226,817.756282 C1069.48818,819.544005 1072.90895,821.719679 1076.29563,823.156149 C1079.31534,824.43534 1082.30884,825.127362 1084.97992,824.403885 C1092.15697,822.448399 1099.30781,823.329154 1106.37477,823.247894 C1109.68806,823.208575 1112.98038,822.95693 1116.24911,822.102388 C1121.35274,820.762907 1125.48911,822.825866 1128.24931,827.253232 C1131.68318,832.778921 1134.08951,838.648 1134.273,845.340165 C1134.46435,852.202714 1132.82344,858.65372 1130.74476,865.086377 C1130.44594,866.006452 1130.08158,866.957982 1129.86139,867.914754 C1129.49442,869.490152 1129.51014,871.076036 1130.83651,872.551824 C1133.70418,875.744561 1146.10806,873.456171 1147.48423,869.157248 C1150.0924,860.986673 1156.2655,857.101914 1163.58148,854.260431 C1167.0835,852.894736 1171.17269,852.41766 1173.33787,848.847457 C1174.69569,846.601008 1176.40214,845.327058 1178.36285,844.627173 C1180.25541,843.950879 1182.38389,843.81195 1184.66178,843.859134 C1190.82439,843.987577 1196.91362,844.498729 1202.9976,845.500064 C1208.13267,846.354606 1212.36341,848.013885 1214.91391,853.14638 C1216.97686,857.314239 1221.3439,859.227784 1225.80269,860.488627 C1230.99282,861.959173 1236.3874,862.457219 1241.78199,862.48081 C1249.58552,862.512266 1253.97354,865.47695 1254.24877,872.169115 C1254.71536,883.715918 1258.13874,895.472425 1253.14784,906.848843 C1251.95516,909.564504 1252.18321,911.391547 1255.55154,911.7428 C1264.61854,912.67336 1270.37224,919.65911 1277.42084,924.112689 C1283.97141,928.256956 1285.62019,935.869196 1282.82854,943.596772 C1281.61751,946.954651 1281.19286,950.545824 1281.77478,954.068844 C1282.47991,958.349418 1281.65945,962.643099 1281.04607,966.931537 C1279.70398,976.368198 1274.4955,982.758914 1265.39443,984.800902 C1260.3511,985.941166 1255.76125,985.317297 1251.81885,983.293658 C1248.28537,981.479722 1245.2709,978.541251 1242.94845,974.685326 C1239.6273,969.180608 1235.60364,967.945978 1229.86305,968.59868 C1226.74897,968.949934 1224.45798,970.037771 1222.62046,971.707536 C1220.71742,973.43759 1219.29669,975.791513 1217.97032,978.630375 C1212.88505,989.51399 1214.54694,998.103973 1224.24303,1005.18933 C1225.4095,1006.03601 1226.46063,1007.15006 1227.27323,1008.34275 C1231.86308,1015.05326 1227.56419,1026.16231 1219.67677,1027.42577 C1214.79334,1028.21216 1209.76835,1028.07323 1204.8089,1028.41662 C1197.44311,1028.94088 1194.63835,1031.28432 1194.13506,1038.49812 C1193.41421,1048.78408 1193.73663,1059.02286 1199.105,1068.33894 C1202.55984,1074.33908 1202.95041,1080.37068 1200.15351,1086.80596 C1197.70262,1092.4365 1196.44441,1098.44713 1195.0761,1104.45776 C1192.1429,1117.30472 1187.93837,1129.36268 1171.29065,1129.62219 C1166.32071,1129.69558 1163.7073,1133.35491 1161.5762,1137.45199 C1159.0126,1142.38527 1156.63772,1148.5191 1150.96528,1149.69868 C1140.78687,1151.81407 1131.82211,1159.42106 1119.95035,1155.0304 C1119.48901,1154.86001 1119.04077,1154.72108 1118.6004,1154.60575 C1115.27924,1153.7381 1112.54001,1154.4275 1110.23329,1156.34629 C1108.12054,1158.1078 1106.36953,1160.89947 1104.87802,1164.49851 C1103.27118,1168.37541 1100.52932,1170.70574 1096.30907,1170.95738 C1093.984,1171.09631 1091.64058,1170.8368 1089.30502,1170.81845 C1080.00212,1170.73719 1078.31664,1172.2156 1075.86574,1180.97859 C1072.72546,1192.21084 1073.14224,1204.3186 1067.49601,1214.93484 C1066.62575,1216.54956 1066.75157,1218.38971 1067.60611,1220.01753 C1070.23262,1225.02158 1071.09502,1230.54727 1072.49216,1235.91568 C1073.59834,1240.13073 1076.07283,1243.25531 1079.9261,1245.20817 C1083.83704,1247.18987 1087.76371,1249.17419 1091.80048,1250.85444 C1104.24105,1256.0315 1106.67884,1261.21904 1101.86617,1274.1263 C1100.22526,1278.52745 1099.93429,1282.12387 1102.54246,1286.46211 C1106.40098,1292.90525 1105.16898,1299.43227 1100.22526,1305.09165 C1098.48211,1307.08383 1096.25402,1308.91612 1096.39819,1311.75498 C1097.08759,1324.99252 1089.74802,1331.8105 1078.03878,1335.42003 C1076.11739,1336.0072 1074.40569,1337.28639 1072.61274,1338.26413 C1064.74105,1342.54209 1056.95062,1343.89729 1049.26504,1340.67572 C1047.42229,1339.90506 1045.58739,1338.87752 1043.75774,1337.55638 C1042.13255,1336.38204 1039.70787,1334.31384 1038.37102,1336.21952 C1037.0001,1338.16977 1035.17569,1339.8107 1033.34604,1341.44901 C1029.39578,1344.98513 1025.41406,1348.51077 1025.8754,1355.13478 C1026.62247,1365.90568 1021.77049,1375.05924 1015.94863,1383.60467 C1009.60515,1392.88929 1000.26554,1395.43457 989.722775,1391.14613 C989.714911,1391.14089 989.704426,1391.13564 989.696562,1391.13302 C987.277125,1390.1448 985.007101,1388.78434 982.700379,1387.54447 C980.529963,1386.38324 977.882475,1385.27967 976.241556,1387.41865 C975.059361,1388.95211 973.704162,1390.2313 972.254597,1391.36632 C967.284659,1395.25632 961.12204,1397.38481 956.4352,1401.5815 C950.736548,1406.69041 944.39044,1409.99324 936.634087,1409.44277 C930.812234,1409.03384 928.796473,1412.02736 928.358721,1417.13627 C927.881648,1422.73011 926.371794,1428.04347 923.763625,1433.05015 C922.030962,1436.37919 919.645601,1438.91398 915.703203,1438.90088 C908.329556,1438.8668 901.165611,1440.25608 893.978074,1441.59557 C890.934773,1442.15914 888.549413,1441.65586 886.562486,1439.75542 C885.854742,1439.0765 885.19418,1438.23245 884.575559,1437.18131 C879.867749,1429.18374 874.606849,1428.64113 869.220129,1436.12755 C868.60675,1436.97684 867.972402,1437.73178 867.322325,1438.41069 C863.151876,1442.74894 858.202909,1443.62969 852.438724,1442.20109 C847.694216,1441.02937 844.761009,1442.19584 842.121385,1446.16973 C839.864467,1449.56168 835.772656,1451.6194 832.160539,1450.35593 C822.490654,1446.99019 816.225806,1451.80027 809.992414,1457.84235 C808.133929,1459.64842 805.835071,1461.11373 803.525727,1462.34311 C797.163892,1465.74031 790.781087,1466.64204 784.670894,1462.74155 C784.112563,1462.38243 783.554231,1462.00234 782.998521,1461.56197 C781.108581,1460.05997 779.294659,1458.85679 776.68649,1459.21853 C767.821337,1460.47675 759.192098,1458.45835 750.610043,1456.85674 C746.919287,1456.17259 744.166948,1456.56578 741.425094,1458.5003 C740.824822,1458.92494 740.22455,1459.39678 739.613793,1459.97608 C730.549423,1468.57917 714.790316,1471.95802 701.332689,1469.41537 C695.316862,1468.28035 689.757137,1465.96574 685.463488,1462.39554 C679.877551,1457.75847 674.365009,1456.41899 667.696484,1456.81218 C663.969031,1457.03237 660.233714,1457.16606 656.498396,1457.15557 C655.892882,1457.15295 655.284746,1457.15819 654.679231,1457.14771 C653.732951,1457.13198 652.768322,1456.98781 651.803692,1456.75976 C644.065688,1454.93271 636.513794,1446.74379 640.521723,1440.15123 C643.323867,1435.53775 647.531014,1434.43943 647.531014,1434.43943 C647.531014,1434.43943 645.030317,1431.18116 644.057824,1429.4013 C638.372278,1418.99214 635.100926,1417.24112 623.777017,1420.18745 C622.50832,1420.51774 621.244865,1420.8087 619.978789,1421.07607 C614.6576,1422.19799 609.33379,1422.74059 603.852703,1422.45749 C601.139684,1422.31857 599.17897,1422.17702 597.671736,1421.84149 C593.91807,1421.00792 593.092368,1418.94758 591.231263,1412.49395 C589.855093,1407.71795 588.523486,1401.3718 583.349088,1400.74793 C575.959713,1399.85669 568.253164,1398.20265 560.971261,1400.17649 C558.226786,1400.92094 555.5426,1402.16605 552.960644,1404.18183 C545.73903,1409.83334 537.502983,1410.14003 529.366545,1407.42175 C529.17257,1407.35884 528.981217,1407.30117 528.787243,1407.23301 C520.792353,1404.42823 513.321719,1400.33115 506.80785,1394.68488 C495.788008,1385.11977 494.899396,1376.38562 504.152498,1365.22415 C509.177483,1359.16896 512.281072,1352.45058 512.367575,1344.47922 C512.42,1339.39653 511.075286,1335.11858 505.615169,1333.51173 C499.55216,1331.72662 498.270356,1336.53932 496.348961,1340.45029 C495.717234,1341.73997 495.027839,1342.94314 494.293881,1344.07554 C489.945186,1350.77033 483.748491,1354.53975 474.830912,1353.86346 C470.917348,1353.56725 467.551631,1354.44276 464.062714,1356.51096 C456.9643,1360.73649 449.341631,1361.19784 442.620682,1358.20956 C439.954845,1357.02474 437.427935,1355.31041 435.136941,1353.05086 C432.376738,1350.33257 429.598186,1347.89477 425.883839,1346.65228 C421.249424,1345.10309 417.655656,1342.06501 415.047487,1338.09375 C407.589959,1326.71471 396.093045,1324.91388 384.562055,1327.21013 C384.056149,1327.31236 383.560728,1327.38576 383.060064,1327.46964 C376.931523,1328.51816 371.19093,1328.46311 365.806831,1327.32809 C358.401728,1325.77104 351.657187,1322.21132 345.470977,1316.79835 C336.681841,1309.11009 332.59003,1299.27762 335.861382,1286.88414 C338.223151,1277.89834 342.883778,1270.2494 347.117138,1262.28591 C352.199791,1252.71556 352.983552,1241.82146 347.570618,1237.06643 C337.971508,1228.62848 334.647731,1216.43684 331.68569,1205.61352 C328.597828,1194.32884 325.719668,1182.53564 323.960792,1170.71884 C322.920146,1163.75669 305.672154,1147.46534 299.001009,1146.9437 C297.46232,1146.82574 296.091393,1147.12195 294.841045,1147.96339 C290.890783,1150.64497 287.679721,1149.0355 284.61545,1146.28838 C282.002038,1143.9397 279.268048,1141.72733 276.733275,1139.30525 C264.297945,1127.43603 262.06724,1109.86549 271.087048,1095.2308 C275.766024,1087.64478 275.430501,1087.40624 269.003134,1081.52143 C259.278203,1072.62738 251.56379,1062.53277 253.445865,1048.134 C254.17458,1042.62928 255.372503,1037.17437 255.83909,1031.64868 C256.782749,1020.44789 257.993778,1009.10292 247.610906,1000.81439 C245.778635,999.346466 245.154771,996.850994 245.002738,994.452509 C244.84284,992.027812 244.433921,989.799711 241.943709,988.591294 C235.812546,985.623989 235.547798,980.958085 237.980341,975.351135 C239.647472,971.500454 238.011796,969.948647 234.006488,970.174078 C229.864873,970.412616 225.820245,969.689139 221.96697,968.184516 C214.042855,965.101873 208.863215,958.928725 209.840951,950.802711 C210.834414,942.626893 208.221003,936.065793 204.818587,929.182273 C200.551151,920.539865 200.986283,912.141237 205.500119,903.215729 C209.830466,894.651959 218.048164,889.506358 222.525302,881.244037 C223.875259,878.756429 227.070593,878.932055 229.731188,878.945162 C232.96322,878.963511 236.404955,879.320007 238.958077,877.005404 C244.599061,871.886016 251.64767,869.650051 258.617641,867.736506 C267.315033,865.351128 280.898481,851.300989 279.480371,850.93925 L279.480371,598.610809 L26.2809061,601.266181 L26.2415869,604.610953 L26.2415869,948.912758 L205.445072,931.743278" id="path88" stroke="#252F38" stroke-width="4.87999988"></path></g><g id="g90" transform="translate(3.262711, 824.938716)"><path d="M296.692179,48.3419153 L286.369597,47.5529056 L123.001236,35.0807858 L10.4515389,25.7017937 C4.35707383,25.1958838 -0.135792012,20.2023176 0.00313557819,14.0894586 C0.136820618,7.97659952 4.84987359,3.19011555 10.957445,2.95419903 L287.001325,0.0996091954 L296.692179,0 L296.692179,9.69092619 L296.692179,37.9878016 L296.692179,48.3419153 Z M287.098312,37.9878016 L287.098312,9.69092619 L11.3270448,12.5402734 C9.06488426,12.6267762 8.99148855,15.9558203 11.2457853,16.1419322 L123.729951,25.5156818 L287.098312,37.9878016 Z" id="path92" fill="#252F38" fill-rule="nonzero"></path></g><g id="g94" transform="translate(3161.377530, 190.577555)"><line x1="0" y1="278.077418" x2="7.67509405" y2="0" id="path96" stroke="#252F38" stroke-width="4.87999988"></line></g><g id="g98" transform="translate(2661.652366, 869.082247)"><path d="M1.30250916e-15,6.30747847 C1.30250916e-15,6.30747847 24.2258262,-11.598585 34.9101443,12.9288687" id="path100" stroke="#252F38" stroke-width="4.87999988"></path></g><g id="g102" transform="translate(2908.647535, 661.630227)"><path d="M-2.41030361e-14,0 C26.7763271,11.2715668 7.07220073,38.3914809 28.8235431,49.2148064" id="path104" stroke="#252F38" stroke-width="4.87999988"></path></g></g></g></g></g></g></g></svg> 